#!OML:ASF H:\LiuWeirdWalks\Patient Classification 1\Patient 1\Session 1\male.ASF
:FULLY-SPECIFIED
:DEGREES
142
root -0.440253 17.2756 -24.0208 11.9777 3.95695 -3.47681
lowerback 8.05358 2.89465 4.82895
upperback -0.542667 4.47398 2.96993
thorax -4.95477 2.12109 -0.151793
lowerneck -22.6375 -1.40283 3.05534
upperneck 16.6185 -1.55113 -6.29138
head 8.84011 -1.24513 -2.88101
rclavicle 3.18055e-015 -6.36111e-015
rhumerus -26.3133 -2.36125 -82.7251
rradius 25.3765
rwrist -3.87105
rhand -14.6483 -2.94441
rfingers 7.12502
rthumb 11.5039 -32.6087
lclavicle 3.18055e-015 -6.36111e-015
lhumerus -38.8994 5.40096 83.872
lradius 28.2068
lwrist 7.64257
lhand -11.4974 0.112024
lfingers 7.12502
lthumb 14.5413 29.5824
rfemur 9.66479 -2.17798 26.7489
rtibia 8.34036
rfoot -16.3923 -24.0753
rtoes -11.8975
lfemur -49.3371 4.33129 -14.0988
ltibia 42.3159
lfoot -11.2802 8.49621
ltoes -16.9703
143
root -0.40919 17.2545 -23.8506 12.0842 3.88047 -3.24351
lowerback 8.01386 2.97458 4.68765
upperback -0.562738 4.55918 2.85717
thorax -4.95161 2.1653 -0.198706
lowerneck -22.6227 -1.44178 3.00012
upperneck 16.6591 -1.59514 -6.24231
head 8.85009 -1.26372 -2.86164
rclavicle 5.1684e-014 8.74653e-015
rhumerus -26.2843 -1.85576 -82.9505
rradius 26.0316
rwrist -4.34381
rhand -14.7509 -2.95953
rfingers 7.12502
rthumb 11.4049 -32.6294
lclavicle 5.1684e-014 8.74653e-015
lhumerus -39.0541 5.76483 83.5338
lradius 27.8621
lwrist 7.24936
lhand -11.4875 0.00779187
lfingers 7.12502
lthumb 14.5508 29.4775
rfemur 10.2746 -2.06874 26.4086
rtibia 8.1856
rfoot -16.134 -24.1397
rtoes -12.7987
lfemur -49.3579 4.38891 -14.5122
ltibia 43.2443
lfoot -11.9546 8.27353
ltoes -17.0613
144
root -0.375343 17.2362 -23.6749 12.195 3.80002 -2.99906
lowerback 7.96285 3.05615 4.55245
upperback -0.601277 4.64725 2.73763
thorax -4.96039 2.21026 -0.256097
lowerneck -22.6146 -1.47164 2.94919
upperneck 16.7318 -1.62456 -6.20455
head 8.87298 -1.27664 -2.84584
rclavicle -3.43897e-014 -2.46493e-014
rhumerus -26.3393 -1.39438 -83.1372
rradius 26.7232
rwrist -4.81249
rhand -14.8596 -2.88859
rfingers 7.12502
rthumb 11.3001 -32.5642
lclavicle -3.43897e-014 -2.46493e-014
lhumerus -39.2369 6.17129 83.1649
lradius 27.5047
lwrist 6.81628
lhand -11.5193 -0.117973
lfingers 7.12502
lthumb 14.5202 29.3539
rfemur 10.8762 -1.95403 26.0326
rtibia 8.07105
rfoot -15.8032 -24.1397
rtoes -13.7777
lfemur -49.2711 4.38196 -14.915
ltibia 44.0822
lfoot -12.7122 8.12138
ltoes -17.1251
145
root -0.338029 17.2217 -23.4924 12.3231 3.71257 -2.72725
lowerback 7.86072 3.13982 4.4087
upperback -0.649279 4.73406 2.60741
thorax -4.95004 2.25517 -0.316683
lowerneck -22.6074 -1.50216 2.90957
upperneck 16.8108 -1.65349 -6.18943
head 8.89797 -1.29119 -2.83984
rclavicle 2.26615e-014 1.59028e-015
rhumerus -26.4558 -0.978516 -83.2891
rradius 27.4398
rwrist -5.27144
rhand -14.9771 -2.8399
rfingers 7.12502
rthumb 11.1869 -32.5217
lclavicle 2.26615e-014 1.59028e-015
lhumerus -39.4285 6.63621 82.7647
lradius 27.1444
lwrist 6.37793
lhand -11.5474 -0.16132
lfingers 7.12502
lthumb 14.4931 29.3125
rfemur 11.4558 -1.83206 25.5983
rtibia 8.00116
rfoot -15.3674 -24.0796
rtoes -14.8568
lfemur -49.0736 4.3004 -15.3249
ltibia 44.791
lfoot -13.5132 8.02966
ltoes -17.1281
146
root -0.297799 17.2116 -23.3041 12.4665 3.63066 -2.42732
lowerback 7.75213 3.21773 4.25478
upperback -0.72945 4.81339 2.46563
thorax -4.96984 2.29561 -0.383197
lowerneck -22.5844 -1.53584 2.87253
upperneck 16.9135 -1.68468 -6.18259
head 8.92821 -1.30747 -2.83774
rclavicle 3.99557e-014 1.74931e-014
rhumerus -26.6564 -0.616595 -83.4061
rradius 28.157
rwrist -5.71608
rhand -15.1006 -2.77492
rfingers 7.12502
rthumb 11.0677 -32.4631
lclavicle 3.99557e-014 1.74931e-014
lhumerus -39.6776 7.15132 82.3256
lradius 26.7975
lwrist 5.93504
lhand -11.5929 -0.117211
lfingers 7.12502
lthumb 14.4493 29.3598
rfemur 11.9959 -1.71656 25.1135
rtibia 7.99432
rfoot -14.8282 -23.9701
rtoes -16.0192
lfemur -48.7674 4.13767 -15.7404
ltibia 45.3455
lfoot -14.2978 8.0034
ltoes -17.0932
147
root -0.255105 17.2064 -23.11 12.6258 3.55088 -2.09453
lowerback 7.63163 3.28933 4.0772
upperback -0.837448 4.88253 2.3115
thorax -5.01325 2.33087 -0.448318
lowerneck -22.5436 -1.58277 2.83057
upperneck 17.0423 -1.73181 -6.17308
head 8.96365 -1.33109 -2.83639
rclavicle -7.99114e-014 -4.77083e-015
rhumerus -26.9117 -0.33517 -83.4829
rradius 28.8111
rwrist -6.1393
rhand -15.2193 -2.56077
rfingers 7.12502
rthumb 10.9532 -32.2551
lclavicle -7.99114e-014 -4.77083e-015
lhumerus -39.9735 7.72477 81.8392
lradius 26.4519
lwrist 5.49241
lhand -11.6445 -0.0145365
lfingers 7.12502
lthumb 14.3996 29.466
rfemur 12.4714 -1.60627 24.5757
rtibia 8.09595
rfoot -14.2073 -23.8126
rtoes -17.2287
lfemur -48.3555 3.90181 -16.1696
ltibia 45.7389
lfoot -15.0275 8.04184
ltoes -17.0788
148
root -0.210251 17.2064 -22.9103 12.7924 3.46964 -1.73686
lowerback 7.50334 3.35082 3.87635
upperback -0.957981 4.93627 2.15203
thorax -5.06734 2.35893 -0.504218
lowerneck -22.4978 -1.61702 2.84566
upperneck 17.1797 -1.76596 -6.22709
head 9.00069 -1.35207 -2.86483
rclavicle 4.67144e-014 2.62396e-014
rhumerus -27.1839 -0.120679 -83.5266
rradius 29.3911
rwrist -6.5277
rhand -15.3546 -2.33748
rfingers 7.12502
rthumb 10.8227 -32.0386
lclavicle 4.67144e-014 2.62396e-014
lhumerus -40.3089 8.35979 81.3162
lradius 26.1387
lwrist 5.06471
lhand -11.6956 0.180865
lfingers 7.12502
lthumb 14.3503 29.6649
rfemur 12.8384 -1.4985 23.9962
rtibia 8.40403
rfoot -13.5504 -23.615
rtoes -18.4682
lfemur -47.8384 3.61276 -16.6107
ltibia 45.9811
lfoot -15.6752 8.15118
ltoes -17.0406
149
root -0.163329 17.212 -22.7044 12.961 3.40745 -1.32869
lowerback 7.35246 3.39535 3.63303
upperback -1.07545 4.9619 1.98093
thorax -5.1088 2.37471 -0.543909
lowerneck -22.4839 -1.65938 2.86955
upperneck 17.362 -1.80955 -6.29602
head 9.05808 -1.37906 -2.90308
rclavicle 4.57205e-015 1.11319e-014
rhumerus -27.4376 -0.00949031 -83.5272
rradius 29.8509
rwrist -6.87125
rhand -15.4871 -2.02547
rfingers 7.12502
rthumb 10.6949 -31.7333
lclavicle 4.57205e-015 1.11319e-014
lhumerus -40.6594 9.05964 80.7491
lradius 25.8161
lwrist 4.61002
lhand -11.7696 0.288374
lfingers 7.12502
lthumb 14.279 29.7774
rfemur 13.0482 -1.42044 23.3516
rtibia 9.0213
rfoot -12.8412 -23.4067
rtoes -19.7892
lfemur -47.2176 3.27258 -17.1031
ltibia 46.0936
lfoot -16.2733 8.33109
ltoes -16.9958
150
root -0.114876 17.2229 -22.4939 13.1288 3.38096 -0.890202
lowerback 7.18929 3.41536 3.36364
upperback -1.19008 4.95225 1.80849
thorax -5.14342 2.3742 -0.565722
lowerneck -22.4701 -1.67217 2.97453
upperneck 17.5355 -1.82606 -6.42506
head 9.11239 -1.39472 -2.97179
rclavicle 1.78906e-014 -4.77083e-015
rhumerus -27.6854 0.0178032 -83.4861
rradius 30.2191
rwrist -7.16095
rhand -15.6113 -1.75426
rfingers 7.12502
rthumb 10.5751 -31.4682
lclavicle 1.78906e-014 -4.77083e-015
lhumerus -41.0214 9.81376 80.151
lradius 25.4816
lwrist 4.15553
lhand -11.9149 0.357687
lfingers 7.12502
lthumb 14.139 29.8566
rfemur 13.0509 -1.38683 22.6713
rtibia 10.0399
rfoot -12.1086 -23.1878
rtoes -21.1498
lfemur -46.511 2.89254 -17.6293
ltibia 46.0966
lfoot -16.8437 8.52578
ltoes -16.8984
151
root -0.0654583 17.2385 -22.2791 13.2827 3.37824 -0.450072
lowerback 7.02449 3.41622 3.08536
upperback -1.29446 4.91697 1.64623
thorax -5.16868 2.36193 -0.568776
lowerneck -22.4512 -1.67384 3.10651
upperneck 17.685 -1.83309 -6.57076
head 9.15751 -1.40586 -3.04891
rclavicle -1.41137e-014 -1.98785e-014
rhumerus -27.9227 -0.0456267 -83.3977
rradius 30.4929
rwrist -7.41924
rhand -15.7279 -1.53926
rfingers 7.12502
rthumb 10.4626 -31.2589
lclavicle -1.41137e-014 -1.98785e-014
lhumerus -41.379 10.6305 79.5257
lradius 25.1286
lwrist 3.70901
lhand -12.0872 0.376788
lfingers 7.12502
lthumb 13.9729 29.8872
rfemur 12.8242 -1.5079 21.9576
rtibia 11.5164
rfoot -11.3839 -22.8327
rtoes -22.4424
lfemur -45.7152 2.51489 -18.1652
ltibia 46.0022
lfoot -17.4045 8.70037
ltoes -16.7419
152
root -0.0155727 17.2589 -22.0615 13.4218 3.43447 -0.00795624
lowerback 6.86841 3.38581 2.80439
upperback -1.39374 4.84137 1.49745
thorax -5.19584 2.33018 -0.552494
lowerneck -22.4249 -1.66302 3.23246
upperneck 17.8192 -1.82698 -6.69077
head 9.19711 -1.40812 -3.11388
rclavicle 2.28602e-014 -1.35174e-014
rhumerus -28.1672 -0.212159 -83.2514
rradius 30.6662
rwrist -7.62656
rhand -15.8422 -1.30307
rfingers 7.12502
rthumb 10.3524 -31.0282
lclavicle 2.28602e-014 -1.35174e-014
lhumerus -41.7363 11.4911 78.8825
lradius 24.7517
lwrist 3.30822
lhand -12.2995 0.395655
lfingers 7.12502
lthumb 13.7684 29.9201
rfemur 12.3511 -1.74888 21.2331
rtibia 13.4652
rfoot -10.6024 -22.4212
rtoes -23.6018
lfemur -44.8416 2.13468 -18.7128
ltibia 45.8108
lfoot -17.9487 8.79325
ltoes -16.5693
153
root 0.03397 17.2835 -21.8419 13.5421 3.52691 0.400497
lowerback 6.728 3.33472 2.53945
upperback -1.48893 4.74191 1.37251
thorax -5.22862 2.28659 -0.518831
lowerneck -22.3895 -1.6538 3.32411
upperneck 17.9332 -1.82155 -6.7695
head 9.2289 -1.40809 -3.15822
rclavicle 1.59028e-015 1.59028e-015
rhumerus -28.4247 -0.473411 -83.0522
rradius 30.7586
rwrist -7.81007
rhand -15.9448 -1.15821
rfingers 7.12502
rthumb 10.2534 -30.8883
lclavicle 1.59028e-015 1.59028e-015
lhumerus -42.0854 12.4043 78.2158
lradius 24.329
lwrist 2.9169
lhand -12.52 0.354073
lfingers 7.12502
lthumb 13.5559 29.8928
rfemur 11.6255 -2.08746 20.5332
rtibia 15.8632
rfoot -9.6783 -21.9547
rtoes -24.5651
lfemur -43.8971 1.79541 -19.2341
ltibia 45.516
lfoot -18.4531 8.78236
ltoes -16.4251
154
root 0.0826869 17.312 -21.6215 13.6327 3.65474 0.767252
lowerback 6.63144 3.26184 2.29209
upperback -1.58068 4.6183 1.27728
thorax -5.28387 2.23076 -0.464412
lowerneck -22.3638 -1.63727 3.36227
upperneck 18.0382 -1.80198 -6.79015
head 9.26138 -1.39853 -3.17151
rclavicle 1.27222e-014 -1.27222e-014
rhumerus -28.6999 -0.804623 -82.8035
rradius 30.7886
rwrist -7.98442
rhand -16.0474 -1.14683
rfingers 7.12502
rthumb 10.1544 -30.8818
lclavicle 1.27222e-014 -1.27222e-014
lhumerus -42.4386 13.3346 77.553
lradius 23.901
lwrist 2.58807
lhand -12.7009 0.365342
lfingers 7.12502
lthumb 13.3815 29.9156
rfemur 10.6648 -2.51576 19.868
rtibia 18.6664
rfoot -8.54652 -21.4272
rtoes -25.2649
lfemur -42.8783 1.50654 -19.7157
ltibia 45.1129
lfoot -18.8613 8.69522
ltoes -16.3078
155
root 0.129884 17.3441 -21.4011 13.6932 3.8097 1.10358
lowerback 6.5811 3.17195 2.04533
upperback -1.66834 4.47478 1.20624
thorax -5.36273 2.1653 -0.385921
lowerneck -22.3126 -1.62975 3.34131
upperneck 18.0954 -1.78902 -6.75664
head 9.27362 -1.38952 -3.15509
rclavicle 1.59028e-015 -3.02153e-014
rhumerus -28.9858 -1.20455 -82.5064
rradius 30.7327
rwrist -8.17077
rhand -16.1566 -1.13907
rfingers 7.12502
rthumb 10.0491 -30.8791
lclavicle 1.59028e-015 -3.02153e-014
lhumerus -42.7812 14.2871 76.8833
lradius 23.4242
lwrist 2.25853
lhand -12.8608 0.299599
lfingers 7.12502
lthumb 13.2274 29.8599
rfemur 9.47506 -2.9819 19.2353
rtibia 21.8265
rfoot -7.10375 -20.884
rtoes -25.5974
lfemur -41.7877 1.27489 -20.1665
ltibia 44.5998
lfoot -19.1158 8.55875
ltoes -16.2021
156
root 0.175708 17.3786 -21.1809 13.7159 3.96313 1.39845
lowerback 6.58422 3.07501 1.80323
upperback -1.74579 4.32467 1.16027
thorax -5.46224 2.09681 -0.286011
lowerneck -22.2667 -1.60759 3.33468
upperneck 18.1235 -1.75787 -6.74088
head 9.2774 -1.37312 -3.14404
rclavicle 8.15017e-015 -1.11319e-014
rhumerus -29.2868 -1.63284 -82.1776
rradius 30.6338
rwrist -8.3836
rhand -16.3131 -1.30931
rfingers 7.12502
rthumb 9.89806 -31.0566
lclavicle 8.15017e-015 -1.11319e-014
lhumerus -43.1124 15.2121 76.242
lradius 22.9322
lwrist 1.94702
lhand -13.0077 0.185508
lfingers 7.12502
lthumb 13.0858 29.755
rfemur 8.07376 -3.40433 18.6517
rtibia 25.2981
rfoot -5.2878 -20.3635
rtoes -25.547
lfemur -40.6224 1.12011 -20.5763
ltibia 43.9837
lfoot -19.1893 8.40296
ltoes -16.0111
